<svg contentScriptType="text/ecmascript" xmlns:xlink="http://www.w3.org/1999/xlink" zoomAndPan="magnify" contentStyleType="text/css" preserveAspectRatio="xMidYMid meet" xmlns="http://www.w3.org/2000/svg" version="1.0"><line x1="0" x2="1032" y1="51.0" y2="51.0" id="axis_X" stroke="lime" stroke-width="1"/><line x1="115.0" x2="115.0" y1="0" y2="640" id="axis_Y" stroke="lime" stroke-width="1"/><svg contentScriptType="text/ecmascript" xmlns:xlink="http://www.w3.org/1999/xlink" zoomAndPan="magnify" contentStyleType="text/css" id="frontAnjelloatoz@gmail.com" preserveAspectRatio="xMidYMid meet" xmlns="http://www.w3.org/2000/svg" version="1.0"><svg x="0" contentScriptType="text/ecmascript" y="0" xmlns:xlink="http://www.w3.org/1999/xlink" zoomAndPan="magnify" contentStyleType="text/css" id="svg_drawing_0" preserveAspectRatio="xMidYMid meet" xmlns="http://www.w3.org/2000/svg" version="1.0"><g id="g_drawing_0"/><svg x="0" contentScriptType="text/ecmascript" y="0" xmlns:xlink="http://www.w3.org/1999/xlink" zoomAndPan="magnify" contentStyleType="text/css" id="svg_drawing_0_01" preserveAspectRatio="xMidYMid meet" xmlns="http://www.w3.org/2000/svg" version="1.0"><g id="g_drawing_0_01"><path fill="none" d="M 115.0 74.0 L 261.0 50.0 L 261.0 50.0 C 289.0 94.0 188.0 77.0 256.0 188.0 L 204.0 217.0 Z" stroke-width="1" id="drawing_0_01" pathLength="100" stroke="blue"/><svg x="0" contentScriptType="text/ecmascript" y="0" xmlns:xlink="http://www.w3.org/1999/xlink" zoomAndPan="magnify" contentStyleType="text/css" id="svg_drawing_0_02" preserveAspectRatio="xMidYMid meet" xmlns="http://www.w3.org/2000/svg" version="1.0"><g id="g_drawing_0_02"><path fill="none" d="M 261.0 50.0 L 345.0 36.0 L 396.0 108.0 L 256.0 188.0 L 256.0 188.0 C 188.0 77.0 289.0 94.0 261.0 50.0 Z" stroke-width="1" id="drawing_0_02" pathLength="100" stroke="black"/></g></svg></g></svg></svg></svg><g id="resizer_holder" transform="rotate(0.0)"><rect x="115.0" y="50.0" fill="none" width="151.0" stroke-dasharray="9, 5" id="resize_box" height="167.0" stroke="#00cc00" stroke-width="1"/><rect x="113" y="48" fill="brown" width="4" id="left_top_box" height="4" stroke="black" stroke-width="1"/><rect x="113" y="131" fill="brown" width="4" id="left_mid_box" height="4" stroke="black" stroke-width="1"/><rect x="113" y="215" fill="brown" width="4" id="left_bottom_box" height="4" stroke="black" stroke-width="1"/><rect x="264" y="48" fill="brown" width="4" id="right_top_box" height="4" stroke="black" stroke-width="1"/><rect x="264" y="131" fill="brown" width="4" id="right_mid_box" height="4" stroke="black" stroke-width="1"/><rect x="264" y="215" fill="brown" width="4" id="right_bottom_box" height="4" stroke="black" stroke-width="1"/><rect x="188" y="215" fill="brown" width="4" id="middle_bottom_box" height="4" stroke="black" stroke-width="1"/></g></svg>