<svg contentScriptType="text/ecmascript" xmlns:xlink="http://www.w3.org/1999/xlink" zoomAndPan="magnify" contentStyleType="text/css" preserveAspectRatio="xMidYMid meet" xmlns="http://www.w3.org/2000/svg" version="1.0"><line x1="0" x2="1032" y1="85.0" y2="85.0" id="axis_X" stroke="lime" stroke-width="1"/><line x1="489.0" x2="489.0" y1="0" y2="640" id="axis_Y" stroke="lime" stroke-width="1"/><svg contentScriptType="text/ecmascript" xmlns:xlink="http://www.w3.org/1999/xlink" zoomAndPan="magnify" contentStyleType="text/css" preserveAspectRatio="xMidYMid meet" xmlns="http://www.w3.org/2000/svg" version="1.0"><defs id="pattern_defs"><pattern x="1.0in" y="1.0in" width="1.0in" xmlns:xlink="http://www.w3.org/1999/xlink" patternUnits="userSpaceOnUse" xlink:type="simple" xlink:actuate="onLoad" height="1.0in" id="pattern_drawing_0_01_02" preserveAspectRatio="xMidYMid meet" xlink:show="other"><image x="0" y="0" width="1.0in" xmlns:xlink="http://www.w3.org/1999/xlink" xlink:href="file:/C:/Documents%20and%20Settings/Anjello/My%20Documents/fashion%20images/FW11040.PNG" xlink:type="simple" xlink:actuate="onLoad" height="1.0in" id="fill_image_drawing_0_01_02" preserveAspectRatio="xMidYMid meet" xlink:show="embed"/></pattern><pattern x="1.0in" y="1.0in" width="1.0in" xmlns:xlink="http://www.w3.org/1999/xlink" patternUnits="userSpaceOnUse" xlink:type="simple" xlink:actuate="onLoad" height="1.0in" id="pattern_drawing_0_02" preserveAspectRatio="xMidYMid meet" xlink:show="other"><image x="0" y="0" width="1.0in" xmlns:xlink="http://www.w3.org/1999/xlink" xlink:href="file:/C:/Documents%20and%20Settings/Anjello/My%20Documents/fashion%20images/FW11040.PNG" xlink:type="simple" xlink:actuate="onLoad" height="1.0in" id="fill_image_drawing_0_02" preserveAspectRatio="xMidYMid meet" xlink:show="embed"/></pattern><pattern x="1.0in" y="1.0in" width="1.0in" xmlns:xlink="http://www.w3.org/1999/xlink" patternUnits="userSpaceOnUse" xlink:type="simple" xlink:actuate="onLoad" height="1.0in" id="pattern_drawing_0_01_01_01_01_02_01_01" preserveAspectRatio="xMidYMid meet" xlink:show="other"><image x="0" y="0" width="1.0in" xmlns:xlink="http://www.w3.org/1999/xlink" xlink:href="file:/C:/Documents%20and%20Settings/Anjello/My%20Documents/fashion%20images/FW11040.PNG" xlink:type="simple" xlink:actuate="onLoad" height="1.0in" id="fill_image_drawing_0_01_01_01_01_02_01_01" preserveAspectRatio="xMidYMid meet" xlink:show="embed"/></pattern><pattern x="1.0in" y="1.0in" width="1.0in" xmlns:xlink="http://www.w3.org/1999/xlink" patternUnits="userSpaceOnUse" xlink:type="simple" xlink:actuate="onLoad" height="1.0in" id="pattern_drawing_0_01_01_01_01_02_02" preserveAspectRatio="xMidYMid meet" xlink:show="other"><image x="0" y="0" width="1.0in" xmlns:xlink="http://www.w3.org/1999/xlink" xlink:href="file:/C:/Documents%20and%20Settings/Anjello/My%20Documents/fashion%20images/FW12040.PNG" xlink:type="simple" xlink:actuate="onLoad" height="1.0in" id="fill_image_drawing_0_01_01_01_01_02_02" preserveAspectRatio="xMidYMid meet" xlink:show="embed"/></pattern><pattern x="1.0in" y="1.0in" width="1.0in" xmlns:xlink="http://www.w3.org/1999/xlink" patternUnits="userSpaceOnUse" xlink:type="simple" xlink:actuate="onLoad" height="1.0in" id="pattern_drawing_0_01_01_01_01_01" preserveAspectRatio="xMidYMid meet" xlink:show="other"><image x="0" y="0" width="1.0in" xmlns:xlink="http://www.w3.org/1999/xlink" xlink:href="file:/C:/Documents%20and%20Settings/Anjello/My%20Documents/fashion%20images/FW12040.PNG" xlink:type="simple" xlink:actuate="onLoad" height="1.0in" id="fill_image_drawing_0_01_01_01_01_01" preserveAspectRatio="xMidYMid meet" xlink:show="embed"/></pattern><pattern x="1.0in" y="1.0in" width="1.0in" xmlns:xlink="http://www.w3.org/1999/xlink" patternUnits="userSpaceOnUse" xlink:type="simple" xlink:actuate="onLoad" height="1.0in" id="pattern_drawing_0_01_01_02_01" preserveAspectRatio="xMidYMid meet" xlink:show="other"><image x="0" y="0" width="1.0in" xmlns:xlink="http://www.w3.org/1999/xlink" xlink:href="file:/C:/Documents%20and%20Settings/Anjello/My%20Documents/fashion%20images/FW12093.PNG" xlink:type="simple" xlink:actuate="onLoad" height="1.0in" id="fill_image_drawing_0_01_01_02_01" preserveAspectRatio="xMidYMid meet" xlink:show="embed"/></pattern><pattern x="1.0in" y="1.0in" width="1.0in" xmlns:xlink="http://www.w3.org/1999/xlink" patternUnits="userSpaceOnUse" xlink:type="simple" xlink:actuate="onLoad" height="1.0in" id="pattern_drawing_0_01_01_01_02_02" preserveAspectRatio="xMidYMid meet" xlink:show="other"><image x="0" y="0" width="1.0in" xmlns:xlink="http://www.w3.org/1999/xlink" xlink:href="file:/C:/Documents%20and%20Settings/Anjello/My%20Documents/fashion%20images/FW12093.PNG" xlink:type="simple" xlink:actuate="onLoad" height="1.0in" id="fill_image_drawing_0_01_01_01_02_02" preserveAspectRatio="xMidYMid meet" xlink:show="embed"/></pattern><pattern x="1.0in" y="1.0in" width="1.0in" xmlns:xlink="http://www.w3.org/1999/xlink" patternUnits="userSpaceOnUse" xlink:type="simple" xlink:actuate="onLoad" height="1.0in" id="pattern_drawing_0_01_01_02_02" preserveAspectRatio="xMidYMid meet" xlink:show="other"><image x="0" y="0" width="1.0in" xmlns:xlink="http://www.w3.org/1999/xlink" xlink:href="file:/C:/Documents%20and%20Settings/Anjello/My%20Documents/fashion%20images/FW12094.PNG" xlink:type="simple" xlink:actuate="onLoad" height="1.0in" id="fill_image_drawing_0_01_01_02_02" preserveAspectRatio="xMidYMid meet" xlink:show="embed"/></pattern><pattern x="1.0in" y="1.0in" width="1.0in" xmlns:xlink="http://www.w3.org/1999/xlink" patternUnits="userSpaceOnUse" xlink:type="simple" xlink:actuate="onLoad" height="1.0in" id="pattern_drawing_0_01_01_01_02_01" preserveAspectRatio="xMidYMid meet" xlink:show="other"><image x="0" y="0" width="1.0in" xmlns:xlink="http://www.w3.org/1999/xlink" xlink:href="file:/C:/Documents%20and%20Settings/Anjello/My%20Documents/fashion%20images/FW12094.PNG" xlink:type="simple" xlink:actuate="onLoad" height="1.0in" id="fill_image_drawing_0_01_01_01_02_01" preserveAspectRatio="xMidYMid meet" xlink:show="embed"/></pattern></defs></svg><svg x="0" contentScriptType="text/ecmascript" y="0" xmlns:xlink="http://www.w3.org/1999/xlink" zoomAndPan="magnify" contentStyleType="text/css" id="svg_drawing_0" preserveAspectRatio="xMidYMid meet" xmlns="http://www.w3.org/2000/svg" version="1.0"><svg x="0" contentScriptType="text/ecmascript" y="0" xmlns:xlink="http://www.w3.org/1999/xlink" zoomAndPan="magnify" contentStyleType="text/css" id="svg_drawing_0_01" preserveAspectRatio="xMidYMid meet" xmlns="http://www.w3.org/2000/svg" version="1.0"><svg x="0" contentScriptType="text/ecmascript" y="0" xmlns:xlink="http://www.w3.org/1999/xlink" zoomAndPan="magnify" contentStyleType="text/css" id="svg_drawing_0_01_01" preserveAspectRatio="xMidYMid meet" xmlns="http://www.w3.org/2000/svg" version="1.0"><svg x="0" contentScriptType="text/ecmascript" y="0" xmlns:xlink="http://www.w3.org/1999/xlink" zoomAndPan="magnify" contentStyleType="text/css" id="svg_drawing_0_01_01_01" preserveAspectRatio="xMidYMid meet" xmlns="http://www.w3.org/2000/svg" version="1.0"><svg x="0" contentScriptType="text/ecmascript" y="0" xmlns:xlink="http://www.w3.org/1999/xlink" zoomAndPan="magnify" contentStyleType="text/css" id="svg_drawing_0_01_01_01_01" preserveAspectRatio="xMidYMid meet" xmlns="http://www.w3.org/2000/svg" version="1.0"><svg x="0" contentScriptType="text/ecmascript" y="0" xmlns:xlink="http://www.w3.org/1999/xlink" zoomAndPan="magnify" contentStyleType="text/css" id="svg_drawing_0_01_01_01_01_02" preserveAspectRatio="xMidYMid meet" xmlns="http://www.w3.org/2000/svg" version="1.0"><svg x="0" contentScriptType="text/ecmascript" y="0" xmlns:xlink="http://www.w3.org/1999/xlink" zoomAndPan="magnify" contentStyleType="text/css" id="svg_drawing_0_01_01_01_01_02_01" preserveAspectRatio="xMidYMid meet" xmlns="http://www.w3.org/2000/svg" version="1.0"><svg x="0" contentScriptType="text/ecmascript" y="0" xmlns:xlink="http://www.w3.org/1999/xlink" zoomAndPan="magnify" contentStyleType="text/css" id="svg_drawing_0_01_01_01_01_02_01_02" preserveAspectRatio="xMidYMid meet" xmlns="http://www.w3.org/2000/svg" version="1.0"><path fill="none" stroke-width="1" id="drawing_0_01_01_01_01_02_01_02" d="M 542.0 38.0 C 546.0010375976562 55.799495697021484 517.9794311523438 146.09677124023438 497.0 204.0 C 471.4972839355469 137.2765655517578 445.661376953125 45.09931945800781 453.0 36.0 L 453.0 36.0 C 477.0 46.0 515.0 46.0 542.0 38.0 Z" pathLength="100" stroke="black"/></svg><svg x="0" contentScriptType="text/ecmascript" y="0" xmlns:xlink="http://www.w3.org/1999/xlink" zoomAndPan="magnify" contentStyleType="text/css" id="svg_drawing_0_01_01_01_01_02_01_01" preserveAspectRatio="xMidYMid meet" xmlns="http://www.w3.org/2000/svg" version="1.0"><path fill="url(#pattern_drawing_0_01_01_01_01_02_01_01)" stroke-width="1" id="drawing_0_01_01_01_01_02_01_01" d="M 463.0 8.0 C 482.5829162597656 15.413735389709473 512.6519165039062 15.267698287963867 535.0 7.0 L 535.0 7.0 C 538.5380859375 9.090696334838867 540.6019287109375 13.8195161819458 542.0 38.0 L 542.0 38.0 C 515.0 46.0 477.0 46.0 453.0 36.0 C 455.9127502441406 11.353352546691895 458.7379150390625 8.266380310058594 463.0 8.0 Z" pathLength="200" stroke="black"/></svg></svg><svg x="0" contentScriptType="text/ecmascript" y="0" xmlns:xlink="http://www.w3.org/1999/xlink" zoomAndPan="magnify" contentStyleType="text/css" id="svg_drawing_0_01_01_01_01_02_02" preserveAspectRatio="xMidYMid meet" xmlns="http://www.w3.org/2000/svg" version="1.0"><path fill="url(#pattern_drawing_0_01_01_01_01_02_02)" stroke-width="1" id="drawing_0_01_01_01_01_02_02" d="M 535.0 7.0 C 539.6441040039062 5.653058052062988 543.4832153320312 3.9537694454193115 547.0 2.0 L 590.0 41.0 L 594.0 47.0 L 594.0 47.0 L 614.0 86.0 L 549.0 109.0 L 610.0 131.0 C 583.0 179.0 538.0 216.0 512.0 239.0 L 512.0 239.0 C 507.025146484375 228.42845153808594 501.6394348144531 215.60919189453125 497.0 204.0 L 497.0 204.0 C 522.0 135.0 557.0 20.0 535.0 7.0 Z" pathLength="200" stroke="black"/></svg></svg><svg x="0" contentScriptType="text/ecmascript" y="0" xmlns:xlink="http://www.w3.org/1999/xlink" zoomAndPan="magnify" contentStyleType="text/css" id="svg_drawing_0_01_01_01_01_01" preserveAspectRatio="xMidYMid meet" xmlns="http://www.w3.org/2000/svg" version="1.0"><path fill="url(#pattern_drawing_0_01_01_01_01_01)" stroke-width="1" id="drawing_0_01_01_01_01_01" d="M 451.0 2.0 C 454.099609375 4.021481990814209 457.616943359375 5.770538330078125 463.0 8.0 L 463.0 8.0 C 431.0 10.0 480.0 171.0 512.0 239.0 C 512.0 239.0 512.0 239.0 512.0 239.0 L 526.0 276.0 L 526.0 278.0 L 526.0 278.0 C 481.0 239.0 422.0 184.0 386.0 130.0 L 446.0 107.0 L 382.0 86.0 L 401.0 46.0 L 405.0 39.0 L 451.0 2.0 Z" pathLength="200" stroke="black"/></svg></svg><svg x="0" contentScriptType="text/ecmascript" y="0" xmlns:xlink="http://www.w3.org/1999/xlink" zoomAndPan="magnify" contentStyleType="text/css" id="svg_drawing_0_01_01_01_02" preserveAspectRatio="xMidYMid meet" xmlns="http://www.w3.org/2000/svg" version="1.0"><svg x="0" contentScriptType="text/ecmascript" y="0" xmlns:xlink="http://www.w3.org/1999/xlink" zoomAndPan="magnify" contentStyleType="text/css" id="svg_drawing_0_01_01_01_02_02" preserveAspectRatio="xMidYMid meet" xmlns="http://www.w3.org/2000/svg" version="1.0"><path fill="url(#pattern_drawing_0_01_01_01_02_02)" stroke-width="1" id="drawing_0_01_01_01_02_02" d="M 353.0 132.0 C 353.60498046875 122.60494232177734 351.50152587890625 96.70175170898438 347.0 69.0 C 355.4497985839844 63.42166519165039 357.7200012207031 62.56065368652344 360.0 62.0 L 400.0 47.0 L 401.0 46.0 L 401.0 46.0 L 382.0 86.0 L 421.0 99.0 L 421.0 99.0 L 353.0 132.0 Z" pathLength="200" stroke="black"/></svg><svg x="0" contentScriptType="text/ecmascript" y="0" xmlns:xlink="http://www.w3.org/1999/xlink" zoomAndPan="magnify" contentStyleType="text/css" id="svg_drawing_0_01_01_01_02_01" preserveAspectRatio="xMidYMid meet" xmlns="http://www.w3.org/2000/svg" version="1.0"><path fill="url(#pattern_drawing_0_01_01_01_02_01)" stroke-width="1" id="drawing_0_01_01_01_02_01" d="M 526.0 278.0 L 526.0 393.0 C 452.4273376464844 395.1607666015625 384.0276184082031 391.0525817871094 345.0 381.0 C 347.0 359.0 345.0 326.0 341.0 312.0 L 341.0 312.0 C 342.0 290.0 337.0 265.0 326.0 246.0 C 343.6506652832031 225.08070373535156 352.7541198730469 190.0585174560547 353.0 132.0 L 353.0 132.0 L 421.0 99.0 L 446.0 107.0 L 386.0 130.0 C 422.0 184.0 481.0 239.0 526.0 278.0 Z" pathLength="200" stroke="black"/></svg></svg></svg><svg x="0" contentScriptType="text/ecmascript" y="0" xmlns:xlink="http://www.w3.org/1999/xlink" zoomAndPan="magnify" contentStyleType="text/css" id="svg_drawing_0_01_01_02" preserveAspectRatio="xMidYMid meet" xmlns="http://www.w3.org/2000/svg" version="1.0"><svg x="0" contentScriptType="text/ecmascript" y="0" xmlns:xlink="http://www.w3.org/1999/xlink" zoomAndPan="magnify" contentStyleType="text/css" id="svg_drawing_0_01_01_02_01" preserveAspectRatio="xMidYMid meet" xmlns="http://www.w3.org/2000/svg" version="1.0"><path fill="url(#pattern_drawing_0_01_01_02_01)" stroke-width="1" id="drawing_0_01_01_02_01" d="M 594.0 47.0 L 594.0 47.0 L 635.0 62.0 C 637.2066040039062 62.635807037353516 639.4132690429688 63.572357177734375 648.0 69.0 L 648.0 69.0 C 642.3165893554688 101.32434844970703 640.7969970703125 130.241943359375 642.0 134.0 L 642.0 134.0 L 573.0 101.0 L 614.0 86.0 L 594.0 47.0 Z" pathLength="200" stroke="black"/></svg><svg x="0" contentScriptType="text/ecmascript" y="0" xmlns:xlink="http://www.w3.org/1999/xlink" zoomAndPan="magnify" contentStyleType="text/css" id="svg_drawing_0_01_01_02_02" preserveAspectRatio="xMidYMid meet" xmlns="http://www.w3.org/2000/svg" version="1.0"><path fill="url(#pattern_drawing_0_01_01_02_02)" stroke-width="1" id="drawing_0_01_01_02_02" d="M 642.0 134.0 C 644.5819091796875 200.2939910888672 656.45947265625 232.16989135742188 670.0 247.0 C 662.0 264.0 656.0 286.0 655.0 307.0 L 655.0 307.0 C 655.0 307.0 655.0 307.0 655.0 307.0 C 650.0 331.0 648.0 360.0 651.0 381.0 C 614.219482421875 387.94744873046875 567.4181518554688 392.0556335449219 526.0 393.0 L 526.0 393.0 L 526.0 276.0 L 512.0 239.0 C 538.0 216.0 583.0 179.0 610.0 131.0 L 549.0 109.0 L 573.0 101.0 L 573.0 101.0 L 642.0 134.0 Z" pathLength="200" stroke="black"/></svg></svg></svg><svg x="0" contentScriptType="text/ecmascript" y="0" xmlns:xlink="http://www.w3.org/1999/xlink" zoomAndPan="magnify" contentStyleType="text/css" id="svg_drawing_0_01_02" preserveAspectRatio="xMidYMid meet" xmlns="http://www.w3.org/2000/svg" version="1.0"><path fill="url(#pattern_drawing_0_01_02)" stroke-width="1" id="drawing_0_01_02" d="M 341.0 312.0 C 341.0 312.0 341.0 312.0 341.0 312.0 L 306.0 437.0 L 213.0 423.0 C 243.80393981933594 311.3357238769531 294.9940490722656 94.03407287597656 347.0 69.0 L 347.0 69.0 C 360.0 149.0 353.0 214.0 326.0 246.0 C 337.0 265.0 342.0 290.0 341.0 312.0 Z" pathLength="200" stroke="black"/></svg></svg><svg x="0" contentScriptType="text/ecmascript" y="0" xmlns:xlink="http://www.w3.org/1999/xlink" zoomAndPan="magnify" contentStyleType="text/css" id="svg_drawing_0_02" preserveAspectRatio="xMidYMid meet" xmlns="http://www.w3.org/2000/svg" version="1.0"><path fill="url(#pattern_drawing_0_02)" stroke-width="1" id="drawing_0_02" d="M 648.0 69.0 C 698.3726806640625 96.18595123291016 754.1220092773438 315.1888427734375 783.0 423.0 L 690.0 437.0 L 655.0 307.0 L 655.0 307.0 C 656.0 286.0 662.0 264.0 670.0 247.0 C 649.0 224.0 632.0 160.0 648.0 69.0 Z" pathLength="200" stroke="black"/></svg></svg></svg>