<svg contentScriptType="text/ecmascript" xmlns:xlink="http://www.w3.org/1999/xlink" zoomAndPan="magnify" contentStyleType="text/css" preserveAspectRatio="xMidYMid meet" xmlns="http://www.w3.org/2000/svg" version="1.0"><line x1="0" x2="1032" y1="257.0" y2="257.0" id="axis_X" stroke="lime" stroke-width="1"/><line x1="10.0" x2="10.0" y1="0" y2="640" id="axis_Y" stroke="lime" stroke-width="1"/><svg contentScriptType="text/ecmascript" xmlns:xlink="http://www.w3.org/1999/xlink" zoomAndPan="magnify" contentStyleType="text/css" preserveAspectRatio="xMidYMid meet" xmlns="http://www.w3.org/2000/svg" version="1.0"><svg x="0" contentScriptType="text/ecmascript" y="0" xmlns:xlink="http://www.w3.org/1999/xlink" zoomAndPan="magnify" contentStyleType="text/css" id="svg_drawing_0" preserveAspectRatio="xMidYMid meet" xmlns="http://www.w3.org/2000/svg" version="1.0"/><svg x="0" contentScriptType="text/ecmascript" y="0" xmlns:xlink="http://www.w3.org/1999/xlink" zoomAndPan="magnify" contentStyleType="text/css" id="svg_drawing_0_02" preserveAspectRatio="xMidYMid meet" xmlns="http://www.w3.org/2000/svg" version="1.0"><path fill="none" d="M 210.0 58.0 C 245.01171875 55.63581085205078 279.45367431640625 44.75078582763672 301.0 25.0 L 352.0 102.0 L 252.0 170.0 L 252.0 170.0 C 223.0 146.0 210.0 131.0 210.0 58.0 Z" stroke-width="1" id="drawing_0_02" pathLength="100" stroke="black"/></svg><svg x="0" contentScriptType="text/ecmascript" y="0" xmlns:xlink="http://www.w3.org/1999/xlink" zoomAndPan="magnify" contentStyleType="text/css" id="svg_drawing_0_01" preserveAspectRatio="xMidYMid meet" xmlns="http://www.w3.org/2000/svg" version="1.0"/><svg x="0" contentScriptType="text/ecmascript" y="0" xmlns:xlink="http://www.w3.org/1999/xlink" zoomAndPan="magnify" contentStyleType="text/css" id="svg_drawing_0_01_01" preserveAspectRatio="xMidYMid meet" xmlns="http://www.w3.org/2000/svg" version="1.0"><path fill="none" d="M 97.0 25.0 C 115.63980865478516 43.639808654785156 146.48316955566406 54.38319778442383 182.0 58.0 L 182.0 58.0 C 181.0 115.0 166.0 157.0 137.0 166.0 L 45.0 101.0 L 97.0 25.0 Z" stroke-width="1" id="drawing_0_01_01" pathLength="100" stroke="black"/></svg><svg x="0" contentScriptType="text/ecmascript" y="0" xmlns:xlink="http://www.w3.org/1999/xlink" zoomAndPan="magnify" contentStyleType="text/css" id="svg_drawing_0_01_02" preserveAspectRatio="xMidYMid meet" xmlns="http://www.w3.org/2000/svg" version="1.0"><path fill="none" d="M 182.0 58.0 C 189.65750122070312 58.290733337402344 199.8569793701172 58.49369812011719 210.0 58.0 L 210.0 58.0 C 210.0 131.0 223.0 146.0 252.0 170.0 L 197.0 208.0 L 137.0 166.0 L 137.0 166.0 C 166.0 157.0 181.0 115.0 182.0 58.0 Z" stroke-width="1" id="drawing_0_01_02" pathLength="200" stroke="black"/></svg></svg></svg>