<svg contentScriptType="text/ecmascript" xmlns:xlink="http://www.w3.org/1999/xlink" zoomAndPan="magnify" contentStyleType="text/css" preserveAspectRatio="xMidYMid meet" xmlns="http://www.w3.org/2000/svg" version="1.0"><defs><pattern x="0.5in" y="0.5in" width="0.5in" xmlns:xlink="http://www.w3.org/1999/xlink" patternUnits="userSpaceOnUse" xlink:type="simple" xlink:actuate="onLoad" height="0.5in" id="pattern0" preserveAspectRatio="xMidYMid meet" xlink:show="other"/></defs><image x="178" y="0" width="668" xmlns:xlink="http://www.w3.org/1999/xlink" xlink:href="file:/D:/NetBeansProjects/RentACoder%20Projects/Fashion%20Design%20tool/Images/Patterns/flat-fashion-sketch-blazer-037-front.JPG" xlink:type="simple" xlink:actuate="onLoad" opacity="0.27" height="642" id="natasha_png" preserveAspectRatio="xMidYMid meet" xlink:show="embed"/><line x1="0" x2="1032" y1="268.0" y2="268.0" id="axis_X" stroke="lime" stroke-width="1"/><line x1="732.0" x2="732.0" y1="0" y2="640" id="axis_Y" stroke="lime" stroke-width="1"/><svg x="0" contentScriptType="text/ecmascript" y="0" xmlns:xlink="http://www.w3.org/1999/xlink" zoomAndPan="magnify" contentStyleType="text/css" id="svg_drawing_2" preserveAspectRatio="xMidYMid meet" xmlns="http://www.w3.org/2000/svg" version="1.0"><path fill="none" d="M 594.0 47.0 L 594.0 48.0 L 629.0 61.0 C 632.2508544921875 61.591068267822266 635.4556884765625 62.652809143066406 647.0 69.0 L 647.0 69.0 C 632.0 163.0 651.0 235.0 671.0 247.0 C 660.0 265.0 657.0 288.0 654.0 309.0 C 650.0542602539062 337.5473937988281 652.0 357.3415222167969 652.0 382.0 C 615.0084228515625 386.1563415527344 566.960693359375 388.5851745605469 524.0 389.0 L 524.0 389.0 L 525.0 278.0 L 513.0 241.0 C 546.0 216.0 584.0 175.0 611.0 132.0 L 551.0 108.0 L 615.0 87.0 L 594.0 47.0 Z" stroke-width="1" id="drawing_2" pathLength="100" stroke="black"/></svg><svg x="0" contentScriptType="text/ecmascript" y="0" xmlns:xlink="http://www.w3.org/1999/xlink" zoomAndPan="magnify" contentStyleType="text/css" id="svg_drawing_8" preserveAspectRatio="xMidYMid meet" xmlns="http://www.w3.org/2000/svg" version="1.0"><path fill="none" d="M 647.0 69.0 C 699.615478515625 93.14298248291016 744.0194702148438 286.09283447265625 783.0 423.0 L 693.0 448.0 L 655.0 309.0 C 654.9317016601562 309.38250732421875 654.8646850585938 309.7635498046875 654.0 309.0 L 654.0 309.0 C 657.0 288.0 660.0 265.0 671.0 247.0 C 651.0 235.0 632.0 163.0 647.0 69.0 Z" stroke-width="1" id="drawing_8" pathLength="100" stroke="black"/></svg><svg x="0" contentScriptType="text/ecmascript" y="0" xmlns:xlink="http://www.w3.org/1999/xlink" zoomAndPan="magnify" contentStyleType="text/css" id="svg_drawing_5" preserveAspectRatio="xMidYMid meet" xmlns="http://www.w3.org/2000/svg" version="1.0"><path fill="none" d="M 525.0 278.0 L 525.0 278.0 L 524.0 389.0 C 450.84503173828125 390.2724609375 382.56805419921875 387.8436584472656 344.0 382.0 C 346.0 364.0 347.0 339.0 340.0 309.0 L 340.0 309.0 C 340.0 285.0 336.0 264.0 326.0 246.0 C 347.0 228.0 359.0 150.0 349.0 68.0 C 356.9990539550781 62.69435119628906 358.9958190917969 61.738380432128906 361.0 61.0 L 399.0 47.0 L 399.0 47.0 L 381.0 87.0 L 445.0 107.0 L 384.0 131.0 C 417.0 181.0 476.0 234.0 525.0 278.0 Z" stroke-width="1" id="drawing_5" pathLength="100" stroke="black"/></svg><svg x="0" contentScriptType="text/ecmascript" y="0" xmlns:xlink="http://www.w3.org/1999/xlink" zoomAndPan="magnify" contentStyleType="text/css" id="svg_drawing_11" preserveAspectRatio="xMidYMid meet" xmlns="http://www.w3.org/2000/svg" version="1.0"><path fill="none" d="M 340.0 309.0 C 340.0 309.0 340.0 309.0 340.0 309.0 L 302.0 449.0 L 212.0 422.0 C 251.5583953857422 284.02801513671875 300.4259338378906 95.78668212890625 349.0 68.0 L 349.0 68.0 C 359.0 150.0 347.0 228.0 326.0 246.0 C 336.0 264.0 340.0 285.0 340.0 309.0 Z" stroke-width="1" id="drawing_11" pathLength="100" stroke="black"/></svg><svg x="0" contentScriptType="text/ecmascript" y="0" xmlns:xlink="http://www.w3.org/1999/xlink" zoomAndPan="magnify" contentStyleType="text/css" id="svg_drawing_0" preserveAspectRatio="xMidYMid meet" xmlns="http://www.w3.org/2000/svg" version="1.0"><path fill="none" d="M 451.0 1.0 C 453.623046875 2.3115286827087402 456.76214599609375 3.468247413635254 463.0 5.0 L 463.0 5.0 C 430.0 17.0 480.0 161.0 513.0 241.0 C 513.0 241.0 513.0 241.0 513.0 241.0 L 525.0 278.0 L 525.0 278.0 C 476.0 234.0 417.0 181.0 384.0 131.0 L 445.0 107.0 L 381.0 87.0 L 399.0 47.0 L 400.0 47.0 L 406.0 40.0 L 435.0 15.0 Z" stroke-width="1" id="drawing_0" pathLength="100" stroke="black"/></svg><svg x="0" contentScriptType="text/ecmascript" y="0" xmlns:xlink="http://www.w3.org/1999/xlink" zoomAndPan="magnify" contentStyleType="text/css" id="svg_drawing_14" preserveAspectRatio="xMidYMid meet" xmlns="http://www.w3.org/2000/svg" version="1.0"><path fill="none" d="M 463.0 5.0 C 480.59039306640625 10.16445541381836 512.5774536132812 10.659006118774414 534.0 6.0 L 534.0 6.0 C 562.0 16.0 518.0 149.0 498.0 203.0 C 465.8473815917969 117.36878204345703 435.4051818847656 15.034477233886719 463.0 5.0 Z" stroke-width="1" id="drawing_14" pathLength="100" stroke="black"/></svg><svg x="0" contentScriptType="text/ecmascript" y="0" xmlns:xlink="http://www.w3.org/1999/xlink" zoomAndPan="magnify" contentStyleType="text/css" id="svg_drawing_17" preserveAspectRatio="xMidYMid meet" xmlns="http://www.w3.org/2000/svg" version="1.0"><path fill="none" d="M 534.0 6.0 C 539.0778198242188 4.414005756378174 542.7501220703125 3.2999448776245117 546.0 2.0 L 593.0 41.0 L 594.0 47.0 L 594.0 47.0 L 615.0 87.0 L 551.0 108.0 L 611.0 132.0 C 584.0 175.0 546.0 216.0 513.0 241.0 L 513.0 241.0 C 507.5948181152344 227.89651489257812 501.7335510253906 213.0760040283203 498.0 203.0 L 498.0 203.0 C 518.0 149.0 562.0 16.0 534.0 6.0 Z" stroke-width="1" id="drawing_17" pathLength="100" stroke="black"/></svg></svg>