<svg contentScriptType="text/ecmascript" xmlns:xlink="http://www.w3.org/1999/xlink" zoomAndPan="magnify" contentStyleType="text/css" preserveAspectRatio="xMidYMid meet" xmlns="http://www.w3.org/2000/svg" version="1.0"><svg contentScriptType="text/ecmascript" xmlns:xlink="http://www.w3.org/1999/xlink" zoomAndPan="magnify" contentStyleType="text/css" id="other_side" preserveAspectRatio="xMidYMid meet" xmlns="http://www.w3.org/2000/svg" version="1.0"/><image x="191" y="0" width="642" xmlns:xlink="http://www.w3.org/1999/xlink" xlink:href="file:/C:/Documents%20and%20Settings/Anjello/My%20Documents/blazer-037%20A.JPG" xlink:type="simple" xlink:actuate="onLoad" opacity="0.19" height="632" id="natasha_png" preserveAspectRatio="xMidYMid meet" xlink:show="embed"/><svg contentScriptType="text/ecmascript" xmlns:xlink="http://www.w3.org/1999/xlink" zoomAndPan="magnify" contentStyleType="text/css" id="this_side" preserveAspectRatio="xMidYMid meet" xmlns="http://www.w3.org/2000/svg" version="1.0"><svg contentScriptType="text/ecmascript" xmlns:xlink="http://www.w3.org/1999/xlink" zoomAndPan="magnify" contentStyleType="text/css" id="frontAnjelloatoz@gmail.com" preserveAspectRatio="xMidYMid meet" xmlns="http://www.w3.org/2000/svg" version="1.0"><svg x="0" contentScriptType="text/ecmascript" y="0" xmlns:xlink="http://www.w3.org/1999/xlink" zoomAndPan="magnify" contentStyleType="text/css" id="svg_drawing_0" preserveAspectRatio="xMidYMid meet" xmlns="http://www.w3.org/2000/svg" version="1.0"><g id="g_drawing_0"/><svg x="0" contentScriptType="text/ecmascript" y="0" xmlns:xlink="http://www.w3.org/1999/xlink" zoomAndPan="magnify" contentStyleType="text/css" id="svg_drawing_0_02" preserveAspectRatio="xMidYMid meet" xmlns="http://www.w3.org/2000/svg" version="1.0"><g id="g_drawing_0_02"><path fill="none" d="M 661.0 68.0 C 693.3788452148438 74.26441192626953 773.08056640625 340.2843322753906 807.0 460.0 L 713.0 472.0 L 669.0 310.0 L 669.0 310.0 C 665.0 295.0 668.0 268.0 685.0 246.0 C 660.0 239.0 648.0 183.0 661.0 68.0 Z" stroke-width="1" id="drawing_0_02" pathLength="100" stroke="grey"/></g></svg><svg x="0" contentScriptType="text/ecmascript" y="0" xmlns:xlink="http://www.w3.org/1999/xlink" zoomAndPan="magnify" contentStyleType="text/css" id="svg_drawing_0_01" preserveAspectRatio="xMidYMid meet" xmlns="http://www.w3.org/2000/svg" version="1.0"><g id="g_drawing_0_01"/><svg x="0" contentScriptType="text/ecmascript" y="0" xmlns:xlink="http://www.w3.org/1999/xlink" zoomAndPan="magnify" contentStyleType="text/css" id="svg_drawing_0_01_02" preserveAspectRatio="xMidYMid meet" xmlns="http://www.w3.org/2000/svg" version="1.0"><g id="g_drawing_0_01_02"><path fill="none" d="M 355.0 308.0 C 355.0 308.0 355.0 308.0 355.0 308.0 L 310.0 473.0 L 217.0 459.0 C 257.0 310.0 323.0 75.0 362.0 70.0 L 363.0 69.0 L 363.0 69.0 C 375.0 166.0 363.0 233.0 339.0 246.0 C 353.0 267.0 358.0 287.0 355.0 308.0 Z" stroke-width="1" id="drawing_0_01_02" pathLength="100" stroke="grey"/></g></svg><svg x="0" contentScriptType="text/ecmascript" y="0" xmlns:xlink="http://www.w3.org/1999/xlink" zoomAndPan="magnify" contentStyleType="text/css" id="svg_drawing_0_01_01" preserveAspectRatio="xMidYMid meet" xmlns="http://www.w3.org/2000/svg" version="1.0"><g id="g_drawing_0_01_01"/><svg x="0" contentScriptType="text/ecmascript" y="0" xmlns:xlink="http://www.w3.org/1999/xlink" zoomAndPan="magnify" contentStyleType="text/css" id="svg_drawing_0_01_01_01" preserveAspectRatio="xMidYMid meet" xmlns="http://www.w3.org/2000/svg" version="1.0"><g id="g_drawing_0_01_01_01"><path fill="none" d="M 465.0 2.0 C 467.38751220703125 3.705354690551758 470.26617431640625 5.203901767730713 475.0 7.0 L 475.0 7.0 C 438.0 40.0 506.0 189.0 538.0 274.0 L 542.0 395.0 C 485.3602600097656 396.962158203125 400.6101379394531 392.4027099609375 358.0 381.0 C 363.0 362.0 359.0 324.0 355.0 308.0 L 355.0 308.0 C 358.0 287.0 353.0 267.0 339.0 246.0 C 363.0 233.0 375.0 166.0 363.0 69.0 L 411.0 47.0 L 419.0 40.0 L 465.0 2.0 Z" stroke-width="1" id="drawing_0_01_01_01" pathLength="100" stroke="grey"/></g></svg><svg x="0" contentScriptType="text/ecmascript" y="0" xmlns:xlink="http://www.w3.org/1999/xlink" zoomAndPan="magnify" contentStyleType="text/css" id="svg_drawing_0_01_01_02" preserveAspectRatio="xMidYMid meet" xmlns="http://www.w3.org/2000/svg" version="1.0"><g id="g_drawing_0_01_01_02"><path fill="none" d="M 475.0 7.0 C 498.84674072265625 16.61751365661621 546.7053833007812 14.522026062011719 560.0 3.0 L 605.0 41.0 L 608.0 48.0 L 660.0 68.0 C 660.0781860351562 68.01184844970703 660.1566162109375 68.02516174316406 661.0 68.0 L 661.0 68.0 C 648.0 183.0 660.0 239.0 685.0 246.0 C 668.0 268.0 665.0 295.0 669.0 310.0 L 669.0 310.0 C 669.0 310.0 669.0 310.0 669.0 310.0 C 660.0 340.0 660.0 375.0 664.0 381.0 C 645.2067260742188 388.5972900390625 603.8695068359375 393.15673828125 542.0 395.0 L 542.0 395.0 L 538.0 274.0 C 506.0 189.0 438.0 40.0 475.0 7.0 Z" stroke-width="1" id="drawing_0_01_01_02" pathLength="100" stroke="black"/></g></svg></svg></svg></svg></svg></svg><defs id="guide image defs"><pattern x="0.5in" y="0.5in" width="0.5in" xmlns:xlink="http://www.w3.org/1999/xlink" patternUnits="userSpaceOnUse" xlink:type="simple" xlink:actuate="onLoad" height="0.5in" id="pattern0" preserveAspectRatio="xMidYMid meet" xlink:show="other"/></defs><g id="resizer_holder" transform="rotate(0.0)"><rect x="464.0" y="3.0" fill="none" width="220.0" stroke-dasharray="9, 5" id="resize_box" height="392.0" stroke="#00cc00" stroke-width="1"/><rect x="462" y="1" fill="brown" width="4" id="left_top_box" height="4" stroke="black" stroke-width="1"/><rect x="462" y="197" fill="brown" width="4" id="left_mid_box" height="4" stroke="black" stroke-width="1"/><rect x="462" y="393" fill="brown" width="4" id="left_bottom_box" height="4" stroke="black" stroke-width="1"/><rect x="682" y="1" fill="brown" width="4" id="right_top_box" height="4" stroke="black" stroke-width="1"/><rect x="682" y="197" fill="brown" width="4" id="right_mid_box" height="4" stroke="black" stroke-width="1"/><rect x="682" y="393" fill="brown" width="4" id="right_bottom_box" height="4" stroke="black" stroke-width="1"/><rect x="572" y="393" fill="brown" width="4" id="middle_bottom_box" height="4" stroke="black" stroke-width="1"/></g></svg>