<svg contentScriptType="text/ecmascript" xmlns:xlink="http://www.w3.org/1999/xlink" zoomAndPan="magnify" contentStyleType="text/css" preserveAspectRatio="xMidYMid meet" xmlns="http://www.w3.org/2000/svg" version="1.0"><line x1="0" x2="1032" y1="0.0" y2="0.0" id="axis_X" stroke="lime" stroke-width="1"/><line x1="200.0" x2="200.0" y1="0" y2="640" id="axis_Y" stroke="lime" stroke-width="1"/><svg x="0" contentScriptType="text/ecmascript" y="0" xmlns:xlink="http://www.w3.org/1999/xlink" zoomAndPan="magnify" contentStyleType="text/css" id="svg_drawing_0" preserveAspectRatio="xMidYMid meet" xmlns="http://www.w3.org/2000/svg" version="1.0"><path fill="none" d="M 82.0 110.0 L 201.0 40.0 L 220.0 79.0 L 220.0 79.0 L 151.0 111.0 L 205.0 144.0 L 157.0 166.0 L 181.0 225.0 C 110.01593780517578 202.01531982421875 89.83419036865234 163.63409423828125 82.0 110.0 Z" stroke-width="1" id="drawing_0" pathLength="100" stroke="black"/></svg><svg x="0" contentScriptType="text/ecmascript" y="0" xmlns:xlink="http://www.w3.org/1999/xlink" zoomAndPan="magnify" contentStyleType="text/css" id="svg_drawing_1" preserveAspectRatio="xMidYMid meet" xmlns="http://www.w3.org/2000/svg" version="1.0"><path fill="none" d="M 220.0 79.0 L 251.0 143.0 L 251.0 143.0 L 240.0 184.0 L 168.0 192.0 L 157.0 166.0 L 205.0 144.0 L 151.0 111.0 L 220.0 79.0 Z" stroke-width="1" id="drawing_1" pathLength="100" stroke="black"/></svg><svg x="0" contentScriptType="text/ecmascript" y="0" xmlns:xlink="http://www.w3.org/1999/xlink" zoomAndPan="magnify" contentStyleType="text/css" id="svg_drawing_4" preserveAspectRatio="xMidYMid meet" xmlns="http://www.w3.org/2000/svg" version="1.0"><path fill="none" d="M 251.0 143.0 L 289.0 223.0 C 230.58663940429688 232.13951110839844 187.96356201171875 230.22581481933594 181.0 225.0 L 181.0 225.0 L 168.0 192.0 L 168.0 192.0 L 240.0 184.0 L 251.0 143.0 Z" stroke-width="1" id="drawing_4" pathLength="100" stroke="black"/></svg></svg>