<svg contentScriptType="text/ecmascript" xmlns:xlink="http://www.w3.org/1999/xlink" zoomAndPan="magnify" contentStyleType="text/css" preserveAspectRatio="xMidYMid meet" xmlns="http://www.w3.org/2000/svg" version="1.0"><line x1="0" x2="1032" y1="39.0" y2="39.0" id="axis_X" stroke="lime" stroke-width="1"/><line x1="665.0" x2="665.0" y1="0" y2="640" id="axis_Y" stroke="lime" stroke-width="1"/><svg contentScriptType="text/ecmascript" xmlns:xlink="http://www.w3.org/1999/xlink" zoomAndPan="magnify" contentStyleType="text/css" preserveAspectRatio="xMidYMid meet" xmlns="http://www.w3.org/2000/svg" version="1.0"><defs id="pattern_defs"><pattern x="1.0in" y="1.0in" width="1.0in" xmlns:xlink="http://www.w3.org/1999/xlink" patternUnits="userSpaceOnUse" xlink:type="simple" xlink:actuate="onLoad" id="pattern_drawing_0_01_01_02" height="1.0in" preserveAspectRatio="xMidYMid meet" xlink:show="other"><image x="0" y="0" width="1.0in" xmlns:xlink="http://www.w3.org/1999/xlink" xlink:href="file:/D:/NetBeansProjects%20Local%20backup/Live%20Files%2018-01-2011/Temp/Black%20Metallic%20Charcoal%20Floral%20Prints" xlink:type="simple" xlink:actuate="onLoad" id="fill_image_drawing_0_01_01_02" height="1.0in" preserveAspectRatio="xMidYMid meet" xlink:show="embed"/></pattern><pattern x="1.0in" y="1.0in" width="1.0in" xmlns:xlink="http://www.w3.org/1999/xlink" patternUnits="userSpaceOnUse" xlink:type="simple" xlink:actuate="onLoad" id="pattern_copy_drawing_0_01_01_01" height="1.0in" preserveAspectRatio="xMidYMid meet" xlink:show="other"><image x="0" y="0" width="1.0in" xmlns:xlink="http://www.w3.org/1999/xlink" xlink:href="file:/D:/NetBeansProjects%20Local%20backup/Live%20Files%2018-01-2011/Temp/Muli-Colored%20Floral%20Jersey%20Prints" xlink:type="simple" xlink:actuate="onLoad" id="fill_image_copy_drawing_0_01_01_01" height="1.0in" preserveAspectRatio="xMidYMid meet" xlink:show="embed"/></pattern><pattern x="1.0in" y="1.0in" width="1.0in" xmlns:xlink="http://www.w3.org/1999/xlink" patternUnits="userSpaceOnUse" xlink:type="simple" xlink:actuate="onLoad" id="pattern_drawing_0_01_02" height="1.0in" preserveAspectRatio="xMidYMid meet" xlink:show="other"><image x="0" y="0" width="1.0in" xmlns:xlink="http://www.w3.org/1999/xlink" xlink:href="file:/D:/NetBeansProjects%20Local%20backup/Live%20Files%2018-01-2011/Temp/Marine%20Beige%20Floral%20Prints" xlink:type="simple" xlink:actuate="onLoad" id="fill_image_drawing_0_01_02" height="1.0in" preserveAspectRatio="xMidYMid meet" xlink:show="embed"/></pattern><pattern x="1.0in" y="1.0in" width="1.0in" xmlns:xlink="http://www.w3.org/1999/xlink" patternUnits="userSpaceOnUse" xlink:type="simple" xlink:actuate="onLoad" id="pattern_drawing_0_02" height="1.0in" preserveAspectRatio="xMidYMid meet" xlink:show="other"><image x="0" y="0" width="1.0in" xmlns:xlink="http://www.w3.org/1999/xlink" xlink:href="file:/D:/NetBeansProjects%20Local%20backup/Live%20Files%2018-01-2011/Temp/Marine%20Beige%20Floral%20Prints" xlink:type="simple" xlink:actuate="onLoad" id="fill_image_drawing_0_02" height="1.0in" preserveAspectRatio="xMidYMid meet" xlink:show="embed"/></pattern></defs></svg><svg contentScriptType="text/ecmascript" xmlns:xlink="http://www.w3.org/1999/xlink" zoomAndPan="magnify" contentStyleType="text/css" preserveAspectRatio="xMidYMid meet" xmlns="http://www.w3.org/2000/svg" version="1.0"><svg x="0" contentScriptType="text/ecmascript" y="0" xmlns:xlink="http://www.w3.org/1999/xlink" zoomAndPan="magnify" contentStyleType="text/css" id="svg_drawing_0" preserveAspectRatio="xMidYMid meet" xmlns="http://www.w3.org/2000/svg" version="1.0"/><svg x="0" contentScriptType="text/ecmascript" y="0" xmlns:xlink="http://www.w3.org/1999/xlink" zoomAndPan="magnify" contentStyleType="text/css" id="svg_drawing_0_01" preserveAspectRatio="xMidYMid meet" xmlns="http://www.w3.org/2000/svg" version="1.0"/><svg x="0" contentScriptType="text/ecmascript" y="0" xmlns:xlink="http://www.w3.org/1999/xlink" zoomAndPan="magnify" contentStyleType="text/css" id="svg_drawing_0_01_01" preserveAspectRatio="xMidYMid meet" xmlns="http://www.w3.org/2000/svg" version="1.0"/><svg contentScriptType="text/ecmascript" xmlns:xlink="http://www.w3.org/1999/xlink" zoomAndPan="magnify" contentStyleType="text/css" id="copy_drawing_0_01_01_container" preserveAspectRatio="xMidYMid meet" xmlns="http://www.w3.org/2000/svg" version="1.0"/><svg x="0" contentScriptType="text/ecmascript" y="0" xmlns:xlink="http://www.w3.org/1999/xlink" zoomAndPan="magnify" contentStyleType="text/css" id="svg_drawing_0_01_01_02" preserveAspectRatio="xMidYMid meet" xmlns="http://www.w3.org/2000/svg" version="1.0"><path fill="url(#pattern_drawing_0_01_01_02)" stroke-width="1" id="drawing_0_01_01_02" d="M 534.0 8.0 C 540.20703125 5.879991054534912 544.5758666992188 3.6459012031555176 548.0 1.0 L 594.0 42.0 L 595.0 49.0 L 646.0 67.0 C 646.3359985351562 67.0924072265625 646.6741333007812 67.20146179199219 649.0 68.0 L 649.0 68.0 C 634.0 161.0 643.0 222.0 670.0 247.0 C 661.0 263.0 656.0 287.0 655.0 307.0 L 655.0 307.0 C 655.0 307.0 655.0 307.0 655.0 307.0 C 649.0 338.0 649.0 370.0 654.0 382.0 C 609.2083740234375 394.21588134765625 538.022705078125 399.32568359375 474.0 397.0 L 474.0 397.0 L 473.0 275.0 C 511.0 167.0 567.0 33.0 534.0 8.0 Z" pathLength="100" stroke="black"/></svg><svg x="0" contentScriptType="text/ecmascript" y="0" xmlns:xlink="http://www.w3.org/1999/xlink" zoomAndPan="magnify" contentStyleType="text/css" id="svg_copy_drawing_0_01_01_01" preserveAspectRatio="xMidYMid meet" xmlns="http://www.w3.org/2000/svg" version="1.0"><path fill="url(#pattern_copy_drawing_0_01_01_01)" stroke-width="1" id="copy_drawing_0_01_01_01" d="M 452.0 2.0 C 453.40863037109375 3.7337071895599365 455.380859375 5.279555797576904 461.0 8.0 L 461.0 8.0 C 430.0 27.0 493.0 191.0 526.0 278.0 L 525.0 397.0 C 461.0466613769531 399.15594482421875 389.81341552734375 393.8038330078125 345.0 381.0 C 348.9481506347656 357.31103515625 345.1023254394531 327.77655029296875 341.0 307.0 L 341.0 307.0 C 341.0 289.0 334.0 266.0 327.0 247.0 C 353.0 206.0 360.0 163.0 348.0 69.0 C 348.58856201171875 68.28431701660156 348.79425048828125 68.1409683227539 349.0 68.0 L 401.0 46.0 L 406.0 38.0 L 452.0 2.0 Z" pathLength="200" stroke="black"/></svg></svg><svg contentScriptType="text/ecmascript" xmlns:xlink="http://www.w3.org/1999/xlink" zoomAndPan="magnify" contentStyleType="text/css" id="front" preserveAspectRatio="xMidYMid meet" xmlns="http://www.w3.org/2000/svg" version="1.0"><svg x="0" contentScriptType="text/ecmascript" y="0" xmlns:xlink="http://www.w3.org/1999/xlink" zoomAndPan="magnify" contentStyleType="text/css" id="svg_drawing_0_02" preserveAspectRatio="xMidYMid meet" xmlns="http://www.w3.org/2000/svg" version="1.0"><path fill="url(#pattern_drawing_0_02)" stroke-width="1" id="drawing_0_02" d="M 649.0 68.0 C 687.1727905273438 82.13874053955078 756.2015991210938 325.75604248046875 780.0 415.0 L 692.0 444.0 L 655.0 307.0 L 655.0 307.0 C 656.0 287.0 661.0 263.0 670.0 247.0 C 643.0 222.0 634.0 161.0 649.0 68.0 Z" pathLength="200" stroke="black"/></svg></svg><svg contentScriptType="text/ecmascript" xmlns:xlink="http://www.w3.org/1999/xlink" zoomAndPan="magnify" contentStyleType="text/css" id="front" preserveAspectRatio="xMidYMid meet" xmlns="http://www.w3.org/2000/svg" version="1.0"><svg x="0" contentScriptType="text/ecmascript" y="0" xmlns:xlink="http://www.w3.org/1999/xlink" zoomAndPan="magnify" contentStyleType="text/css" id="svg_drawing_0_01_02" preserveAspectRatio="xMidYMid meet" xmlns="http://www.w3.org/2000/svg" version="1.0"><path fill="url(#pattern_drawing_0_01_02)" stroke-width="1" id="drawing_0_01_02" d="M 341.0 307.0 C 341.1036682128906 306.5458068847656 341.0518493652344 306.27215576171875 341.0 306.0 L 311.0 415.0 L 218.0 403.0 C 243.90093994140625 306.36956787109375 294.61175537109375 106.53007507324219 348.0 69.0 L 348.0 69.0 C 360.0 163.0 353.0 206.0 327.0 247.0 C 334.0 266.0 341.0 289.0 341.0 307.0 Z" pathLength="100" stroke="blue"/></svg></svg></svg>